# xmcd
#
# Track frame offsets:
#   150
#   22101
#   35967
#   53589
#   65219
#   75762
#   90627
#   104185
#   118652
#   132153
#   146887
#   160165
#   173860
#   186476
#   204621
#   230191
#   248142
#   268951
#
# Disc length: 3771 seconds
#
# Revision: 0
# Processed by: cddbd v1.5.1PL0 Copyright (c) Steve Scherf et al.
# Submitted via: uFREEDB ActiveX Control 1.5
#
DISCID=180eb912
DTITLE=Companhia do calypso - Ao vivo em Recife
DYEAR=1900
DGENRE=Brega
TTITLE0=Abertura - se mancol
TTITLE1=Outro rapaz
TTITLE2=Mais um lance
TTITLE3=Impossível te amar
TTITLE4=Good bye amor
TTITLE5=Deusa
TTITLE6=Feitiço nos olhos
TTITLE7=O meu amor étodo seu
TTITLE8=Medo de falar
TTITLE9=Nas ondas do rádio
TTITLE10=Minha inspiração
TTITLE11=Sedução
TTITLE12=Doce tentação
TTITLE13=Dudu
TTITLE14=Faltou coragem
TTITLE15=Homem safado
TTITLE16=Ânsia
TTITLE17=Complicada
EXTD=
EXTT0=
EXTT1=
EXTT2=
EXTT3=
EXTT4=
EXTT5=
EXTT6=
EXTT7=
EXTT8=
EXTT9=
EXTT10=
EXTT11=
EXTT12=
EXTT13=
EXTT14=
EXTT15=
EXTT16=
EXTT17=
PLAYORDER=
